<svg xmlns="http://www.w3.org/2000/svg" width="810.056" height="716.981" viewBox="0 0 810.056 716.981"><defs><style>.a{fill:#3f3d56;}.b{opacity:0.1;}.c{fill:#2f2e41;}.d{fill:#403d3d;}.e{fill:#f2f2f2;}.f{fill:#ffb9b9;}.g{fill:#d0cde1;}.h{fill:#6c63ff;}.i{fill:#61dafb;}.j{fill:none;stroke:#61dafb;}</style></defs><g transform="translate(-934 -323.65)"><g transform="translate(934 216)"><path class="a" d="M977.556,739.357c0,43.354-177.569,124-401.243,124S168.5,787.711,168.5,744.357s184.139-38,407.813-38S977.556,696,977.556,739.357Z" transform="translate(-168.5 -38.726)"/><path class="b" d="M977.556,739.357c0,43.354-177.569,124-401.243,124S168.5,787.711,168.5,744.357s184.139-38,407.813-38S977.556,696,977.556,739.357Z" transform="translate(-168.5 -38.726)"/><ellipse class="a" cx="405.028" cy="78.5" rx="405.028" ry="78.5" transform="translate(0 626.631)"/><path class="c" d="M594.859,440.238V650.182l35.117,57.231,2.673,4.353H771.212l2.8-271.528Z" transform="translate(-52.944 -1.548)"/><path class="b" d="M594.859,440.238V650.182l35.117,57.231,2.155-267.175Z" transform="translate(-38.141 -1.533)"/><path class="c" d="M260.348,434.639V644.583l-35.117,57.231-2.673,4.353H83.994l-2.8-271.528Z" transform="translate(0 -1.522)"/><path class="b" d="M260.348,434.639V644.583l-35.117,57.231-2.156-267.175Z" transform="translate(-14.303 -1.508)"/><path class="c" d="M763.056,430.44v12.6H63V424.842l65.061-36.39H705.8Z" transform="translate(0 -0.88)"/><path class="b" d="M763.056,430.44v12.6H63V424.842Z" transform="translate(0 -0.943)"/><path class="b" d="M170.771,493.424H137.18l-14-9.8h62.983Z" transform="translate(0 -1.104)"/><path class="b" d="M170.771,534.013H137.18l-14-9.8h62.983Z" transform="translate(0 -1.224)"/><path class="b" d="M170.771,591.4H137.18l-14-9.8h62.983Z" transform="translate(0 -1.392)"/><path class="b" d="M170.771,648.782H137.18l-14-9.8h62.983Z" transform="translate(0 -1.561)"/><path class="b" d="M684.435,499.022h33.591l14-9.8H669.039Z" transform="translate(-44.276 -1.121)"/><path class="b" d="M684.435,539.611h33.591l14-9.8H669.039Z" transform="translate(-44.276 -1.24)"/><path class="b" d="M684.435,597h33.591l14-9.8H669.039Z" transform="translate(-44.276 -1.409)"/><path class="b" d="M684.435,654.381h33.591l14-9.8H669.039Z" transform="translate(-44.276 -1.577)"/><path class="a" d="M701.016,390.069l-4.669,29.808s-22.984,12.21-6.823,12.569,92.3,0,92.3,0,14.724,0-8.619-12.929l-4.669-31.244Z" transform="translate(-204.378 -37.396)"/><path class="b" d="M686.273,432.123a63.569,63.569,0,0,1,10.074-6.669l4.669-29.807,67.516.064L773.2,425.1a61.3,61.3,0,0,1,10.788,7.1c3-.684,6.274-3.226-10.788-12.676l-4.669-31.244-67.516,1.8-4.669,29.807S677.034,430.139,686.273,432.123Z" transform="translate(-204.378 -37.396)"/><rect class="d" width="283.71" height="158.734" transform="translate(385.302 156.984)"/><rect class="a" width="304.18" height="211.885" rx="10.695" transform="translate(374.617 132.672)"/><circle class="e" cx="1.796" cy="1.796" r="1.796" transform="translate(529.365 150.16)"/><path class="a" d="M886.505,364.931v18.574a10.694,10.694,0,0,1-10.7,10.695H593.019a10.694,10.694,0,0,1-10.695-10.7V364.931Z" transform="translate(-207.707 -37.309)"/><circle class="e" cx="6.823" cy="6.823" r="6.823" transform="translate(524.24 335.514)"/><path class="a" d="M555.281,415.2v3.592H362.071v-2.873l.266-.719,4.762-12.928H551.331Z" transform="translate(-28.62 -0.874)"/><path class="a" d="M798.135,448.323c-.352,1.5-1.681,3.092-4.683,4.593-10.774,5.387-32.68-1.436-32.68-1.436s-16.879-2.873-16.879-10.415a13.466,13.466,0,0,1,1.48-.88c4.53-2.4,19.548-8.31,46.178.25a11.106,11.106,0,0,1,5.062,3.317,5.3,5.3,0,0,1,1.523,4.57Z" transform="translate(-206.17 -37.511)"/><path class="b" d="M798.135,448.323c-13.187,5.053-24.941,5.43-37-2.948-6.084-4.223-11.611-5.268-15.758-5.189,4.53-2.4,19.548-8.31,46.178.25a11.106,11.106,0,0,1,5.062,3.317,5.3,5.3,0,0,1,1.523,4.57Z" transform="translate(-206.198 -37.507)"/><ellipse class="e" cx="4.669" cy="1.437" rx="4.669" ry="1.437" transform="translate(570.697 404.992)"/><path class="b" d="M555.281,415.2v3.592H362.071v-2.873l.266-.719Z" transform="translate(-28.62 -0.896)"/><circle class="f" cx="38.247" cy="38.247" r="38.247" transform="translate(332.401 117.648)"/><path class="f" d="M534.957,211.661v60.39h62.4s-8.052-50.325-4.026-65.422Z" transform="translate(-192.734 -36.643)"/><path class="b" d="M458.967,337.975l4.529-24.659S437.328,427.05,440.347,440.134s25.162,33.214,28.182,34.221,31.2-86.558,31.2-86.558Z" transform="translate(-186.399 -37.274)"/><path class="g" d="M473.561,310.3l-17.11,3.019S430.282,427.05,433.3,440.134s25.162,33.214,28.182,34.221,31.2-86.558,31.2-86.558Z" transform="translate(-185.935 -37.266)"/><path class="b" d="M664.291,344.014l8.555-16.607s12.078,113.734,4.026,124.8-39.9,15.214-39.9,15.214l-.357-82.649Z" transform="translate(-198.725 -37.302)"/><path class="g" d="M665.8,314.323l13.084,13.084s12.078,113.734,4.026,124.8-39.9,15.214-39.9,15.214l-.357-82.649Z" transform="translate(-199.115 -37.269)"/><path class="a" d="M470.542,487.439s-29.188-11.071-34.221,10.065S448.4,613.251,448.4,613.251s11.071,71.461,18.117,73.474,38.247,3.019,43.279-6.039S494.7,579.03,494.7,579.03l116.753-2.013s-7.045,80.519-11.071,87.565-4.026,31.2,0,31.2,48.312-2.013,51.331-8.052,20.13-141.915,20.13-141.915,14.091-47.305-2.013-44.286S470.542,487.439,470.542,487.439Z" transform="translate(-191.26 -38.039)"/><path class="c" d="M642.652,683.705s10.065-7.045,15.1,0,7.045,15.1-15.1,27.175-39.253,9.058-39.253,7.045V688.738Z" transform="translate(-197.09 -38.286)"/><path class="c" d="M468.529,680.686s-10.065-7.045-15.1,0-7.046,15.1,15.1,27.175,39.253,9.058,39.253,7.045V685.718Z" transform="translate(-187.016 -38.277)"/><path class="c" d="M563.387,144.312a32.348,32.348,0,0,0-11.233,1.6,43.428,43.428,0,0,0-8,4.234l-16.886,10.5a7.908,7.908,0,0,0-4.766,7.37l-2.11,15.8c-.532,3.988-1.023,8.252.762,11.858,1.49,3.009,4.331,5.069,6.668,7.48a27.456,27.456,0,0,1,7.236,14.061c1.208,6.6.435,14.542,5.656,18.753,2.827,2.28,6.68,2.711,10.306,2.923a153.786,153.786,0,0,0,29.7-1.143,11.82,11.82,0,0,0,4.487-1.257c1.775-1.05,2.892-2.9,3.937-4.681,3.771-6.42,7.657-13.249,7.616-20.694-.02-3.683-.963-7.639.806-10.87A42.5,42.5,0,0,1,600.6,196.3c2.19-3.077,2.616-7.03,2.973-10.79,1.14-12.009-.052-21.147-8.9-29.606C586.41,148.011,574.654,144.385,563.387,144.312Z" transform="translate(-192.384 -36.643)"/><path class="c" d="M300.937,569.7,267.346,740.458h16.795L316.333,572.5Z" transform="translate(-17.389 -2.083)"/><path class="c" d="M408.708,583.7,429.7,779.648h14L431.1,578.1Z" transform="translate(-26.134 -2.083)"/><path class="c" d="M466.093,578.1l29.392,130.166h14L481.489,575.3Z" transform="translate(-30.108 -1.662)"/><path class="c" d="M354.123,578.1l-4.2,103.573h11.2l8.4-103.573Z" transform="translate(-21.966 -1.592)"/><path class="h" d="M1019.5,649.308c0,26.115-15.525,35.234-34.676,35.234s-34.676-9.118-34.676-35.234,34.676-59.338,34.676-59.338S1019.5,623.193,1019.5,649.308Z" transform="translate(-221.444 -38.13)"/><path class="a" d="M815.416,622.048,830.2,595.009l-14.724,23.61.16-9.827,10.186-19.563-10.144,16.962.287-17.675,10.908-15.574-10.863,12.795.18-32.41-1.079,41.067L804.06,577.487l10.912,20.372-1.033,19.74-.031-.524-12.785-17.863,12.746,19.714-.129,2.469-.023.037.011.2-2.622,26.342h3.5l.42-2.128,12.715-19.667L815.06,643.9Z" transform="translate(-52.944 -1.487)"/><path class="c" d="M838.47,704.549H797.129l-10.684-60.386h60.386Z" transform="translate(-52.944 -1.697)"/><rect class="a" width="86" height="100.828" transform="translate(135.12 295.664)"/><rect class="a" width="59.31" height="69.536" transform="translate(147.914 311.291)"/><g transform="translate(44 -87.517)"><path class="e" d="M635.022,289.895H510.544c-.53,0-.96-1.008-.96-2.251s.43-2.251.96-2.251H635.022c.53,0,.961,1.008.961,2.251S635.552,289.895,635.022,289.895Z" transform="translate(-132.977 -33.5)"/><path class="e" d="M620.636,314.661H416.154a2.262,2.262,0,1,1,0-4.5H620.636a2.262,2.262,0,1,1,0,4.5Z" transform="translate(-36.903 -41.358)"/><path class="e" d="M644.765,339.426H416.888a2.3,2.3,0,1,1,0-4.5H644.765a2.3,2.3,0,1,1,0,4.5Z" transform="translate(-37.903 -48.793)"/><path class="e" d="M594.423,364.192H416.73a2.254,2.254,0,0,1,0-4.5H594.423a2.254,2.254,0,0,1,0,4.5Z" transform="translate(-37.903 -82.6)"/><path class="e" d="M572.519,289.895H418.834c-3.6,0-6.512-1.008-6.512-2.251s2.916-2.251,6.512-2.251H572.518c3.6,0,6.512,1.008,6.512,2.251s-2.915,2.251-6.512,2.251Z" transform="translate(-36.903 -25.5)"/><path class="e" d="M600.766,629.861H415.249a2.251,2.251,0,1,1,0-4.5H600.766a2.251,2.251,0,1,1,0,4.5Z" transform="translate(-36.903 -262.157)"/><path class="e" d="M599.866,679.392H414.348a2.251,2.251,0,1,1,0-4.5H599.866a2.251,2.251,0,0,1,0,4.5Z" transform="translate(-15.903 -302.692)"/><path class="e" d="M735.129,679.842H628.692c-2.491,0-4.51-1.008-4.51-2.251s2.019-2.251,4.51-2.251H735.13c2.491,0,4.51,1.008,4.51,2.251s-2.019,2.251-4.51,2.251Z" transform="translate(-197.514 -294.882)"/><path class="e" d="M688.077,704.158h-61.3a2.274,2.274,0,1,1,0-4.5h61.3a2.274,2.274,0,1,1,0,4.5Z" transform="translate(-187.67 -311.74)"/><path class="e" d="M732.9,654.626H511.517a2.338,2.338,0,0,1,0-4.5H732.9a2.338,2.338,0,0,1,0,4.5Z" transform="translate(-124.977 -295.095)"/><path class="e" d="M467.932,654.626H414.8a2.251,2.251,0,0,1,0-4.5h53.134a2.251,2.251,0,0,1,0,4.5Z" transform="translate(-36.903 -292.958)"/><path class="h" d="M647.286,401.13l-38.619,21.1,38.619,21.1,8.689-4.807L626.769,422.36l9.636-5.331,19.811-10.959Z" transform="translate(-179.089 -99.743)"/><path class="h" d="M617.6,401.13l38.619,21.1-38.619,21.1-8.689-4.807,29.206-16.157-29.447-16.29Z" transform="translate(-111.089 -98.544)"/></g><path class="g" d="M658.756,293.187s-59.383-29.188-59.383-31.2-6.039-15.1-10.065-15.1-38.247-11.071-57.37,5.032l-2.013,13.084-73.474,48.312,20.13,73.474s13.084,14.091,9.058,24.156,3.019,61.4,3.019,61.4l158.019-5.032V398.868s5.032-16.1,8.052-21.136,0-20.13,0-20.13l24.156-30.195S675.866,299.225,658.756,293.187Z" transform="translate(-192.3 -36.643)"/><path class="h" d="M445.643,588.151s-22.394-149.76,40.589-153.959,152.559,0,152.559,0,51.786-4.2,36.39,153.959c0,0,14,46.188-111.97,41.989S445.643,588.151,445.643,588.151Z" transform="translate(-191.585 -37.795)"/></g><g transform="translate(1101 551.626)"><circle class="i" cx="3.945" cy="3.945" r="3.945" transform="translate(6.225 6.804)"/><g transform="translate(-11 -11.626)"><ellipse class="j" cx="21.17" cy="8.083" rx="21.17" ry="8.083" transform="translate(0 14.292)"/><ellipse class="j" cx="21.17" cy="8.083" rx="21.17" ry="8.083" transform="translate(17.585 0) rotate(60)"/><ellipse class="j" cx="21.17" cy="8.083" rx="21.17" ry="8.083" transform="translate(38.755 8.083) rotate(120)"/></g></g></g></svg>